# .PCD v0.7 - Point Cloud Data file format
VERSION 0.7
FIELDS x y z rgb
SIZE 4 4 4 4
TYPE F F F U
COUNT 1 1 1 1
WIDTH 800
HEIGHT 1
VIEWPOINT 0 0 0 1 0 0 0
POINTS 800
DATA ascii
-1.0 -0.5 -0.5 4294967295
-0.9 -0.5 -0.5 4294967295
-0.8 -0.5 -0.5 4294967295
-0.7 -0.5 -0.5 4294967295
-0.6 -0.5 -0.5 4294967295
-0.5 -0.5 -0.5 4294967295
-0.4 -0.5 -0.5 4294967295
-0.3 -0.5 -0.5 4294967295
-0.2 -0.5 -0.5 4294967295
-0.1 -0.5 -0.5 4294967295
0.0 -0.5 -0.5 4294967295
0.1 -0.5 -0.5 4294967295
0.2 -0.5 -0.5 4294967295
0.3 -0.5 -0.5 4294967295
0.4 -0.5 -0.5 4294967295
0.5 -0.5 -0.5 4294967295
0.6 -0.5 -0.5 4294967295
0.7 -0.5 -0.5 4294967295
0.8 -0.5 -0.5 4294967295
0.9 -0.5 -0.5 4294967295
1.0 -0.5 -0.5 4294967295
-1.0 -0.5 0.5 4294967295
-0.9 -0.5 0.5 4294967295
-0.8 -0.5 0.5 4294967295
-0.7 -0.5 0.5 4294967295
-0.6 -0.5 0.5 4294967295
-0.5 -0.5 0.5 4294967295
-0.4 -0.5 0.5 4294967295
-0.3 -0.5 0.5 4294967295
-0.2 -0.5 0.5 4294967295
-0.1 -0.5 0.5 4294967295
0.0 -0.5 0.5 4294967295
0.1 -0.5 0.5 4294967295
0.2 -0.5 0.5 4294967295
0.3 -0.5 0.5 4294967295
0.4 -0.5 0.5 4294967295
0.5 -0.5 0.5 4294967295
0.6 -0.5 0.5 4294967295
0.7 -0.5 0.5 4294967295
0.8 -0.5 0.5 4294967295
0.9 -0.5 0.5 4294967295
1.0 -0.5 0.5 4294967295
-1.0 0.5 -0.5 4294967295
-0.9 0.5 -0.5 4294967295
-0.8 0.5 -0.5 4294967295
-0.7 0.5 -0.5 4294967295
-0.6 0.5 -0.5 4294967295
-0.5 0.5 -0.5 4294967295
-0.4 0.5 -0.5 4294967295
-0.3 0.5 -0.5 4294967295
-0.2 0.5 -0.5 4294967295
-0.1 0.5 -0.5 4294967295
0.0 0.5 -0.5 4294967295
0.1 0.5 -0.5 4294967295
0.2 0.5 -0.5 4294967295
0.3 0.5 -0.5 4294967295
0.4 0.5 -0.5 4294967295
0.5 0.5 -0.5 4294967295
0.6 0.5 -0.5 4294967295
0.7 0.5 -0.5 4294967295
0.8 0.5 -0.5 4294967295
0.9 0.5 -0.5 4294967295
1.0 0.5 -0.5 4294967295
-1.0 0.5 0.5 4294967295
-0.9 0.5 0.5 4294967295
-0.8 0.5 0.5 4294967295
-0.7 0.5 0.5 4294967295
-0.6 0.5 0.5 4294967295
-0.5 0.5 0.5 4294967295
-0.4 0.5 0.5 4294967295
-0.3 0.5 0.5 4294967295
-0.2 0.5 0.5 4294967295
-0.1 0.5 0.5 4294967295
0.0 0.5 0.5 4294967295
0.1 0.5 0.5 4294967295
0.2 0.5 0.5 4294967295
0.3 0.5 0.5 4294967295
0.4 0.5 0.5 4294967295
0.5 0.5 0.5 4294967295
0.6 0.5 0.5 4294967295
0.7 0.5 0.5 4294967295
0.8 0.5 0.5 4294967295
0.9 0.5 0.5 4294967295
1.0 0.5 0.5 4294967295
-1.0 -0.4 -0.5 4294967295
-1.0 -0.3 -0.5 4294967295
-1.0 -0.2 -0.5 4294967295
-1.0 -0.1 -0.5 4294967295
-1.0 0.0 -0.5 4294967295
-1.0 0.1 -0.5 4294967295
-1.0 0.2 -0.5 4294967295
-1.0 0.3 -0.5 4294967295
-1.0 0.4 -0.5 4294967295
-1.0 -0.4 0.5 4294967295
-1.0 -0.3 0.5 4294967295
-1.0 -0.2 0.5 4294967295
-1.0 -0.1 0.5 4294967295
-1.0 0.0 0.5 4294967295
-1.0 0.1 0.5 4294967295
-1.0 0.2 0.5 4294967295
-1.0 0.3 0.5 4294967295
-1.0 0.4 0.5 4294967295
1.0 -0.4 -0.5 4294967295
1.0 -0.3 -0.5 4294967295
1.0 -0.2 -0.5 4294967295
1.0 -0.1 -0.5 4294967295
1.0 0.0 -0.5 4294967295
1.0 0.1 -0.5 4294967295
1.0 0.2 -0.5 4294967295
1.0 0.3 -0.5 4294967295
1.0 0.4 -0.5 4294967295
1.0 -0.4 0.5 4294967295
1.0 -0.3 0.5 4294967295
1.0 -0.2 0.5 4294967295
1.0 -0.1 0.5 4294967295
1.0 0.0 0.5 4294967295
1.0 0.1 0.5 4294967295
1.0 0.2 0.5 4294967295
1.0 0.3 0.5 4294967295
1.0 0.4 0.5 4294967295
-0.9 -0.4 -0.5 4294967295
-0.8 -0.4 -0.5 4294967295
-0.7 -0.4 -0.5 4294967295
-0.6 -0.4 -0.5 4294967295
-0.5 -0.4 -0.5 4294967295
-0.4 -0.4 -0.5 4294967295
-0.3 -0.4 -0.5 4294967295
-0.2 -0.4 -0.5 4294967295
-0.1 -0.4 -0.5 4294967295
0.0 -0.4 -0.5 4294967295
0.1 -0.4 -0.5 4294967295
0.2 -0.4 -0.5 4294967295
0.3 -0.4 -0.5 4294967295
0.4 -0.4 -0.5 4294967295
0.5 -0.4 -0.5 4294967295
0.6 -0.4 -0.5 4294967295
0.7 -0.4 -0.5 4294967295
0.8 -0.4 -0.5 4294967295
0.9 -0.4 -0.5 4294967295
-0.9 -0.4 0.5 4294967295
-0.8 -0.4 0.5 4294967295
-0.7 -0.4 0.5 4294967295
-0.6 -0.4 0.5 4294967295
-0.5 -0.4 0.5 4294967295
-0.4 -0.4 0.5 4294967295
-0.3 -0.4 0.5 4294967295
-0.2 -0.4 0.5 4294967295
-0.1 -0.4 0.5 4294967295
0.0 -0.4 0.5 4294967295
0.1 -0.4 0.5 4294967295
0.2 -0.4 0.5 4294967295
0.3 -0.4 0.5 4294967295
0.4 -0.4 0.5 4294967295
0.5 -0.4 0.5 4294967295
0.6 -0.4 0.5 4294967295
0.7 -0.4 0.5 4294967295
0.8 -0.4 0.5 4294967295
0.9 -0.4 0.5 4294967295
-0.9 0.4 -0.5 4294967295
-0.8 0.4 -0.5 4294967295
-0.7 0.4 -0.5 4294967295
-0.6 0.4 -0.5 4294967295
-0.5 0.4 -0.5 4294967295
-0.4 0.4 -0.5 4294967295
-0.3 0.4 -0.5 4294967295
-0.2 0.4 -0.5 4294967295
-0.1 0.4 -0.5 4294967295
0.0 0.4 -0.5 4294967295
0.1 0.4 -0.5 4294967295
0.2 0.4 -0.5 4294967295
0.3 0.4 -0.5 4294967295
0.4 0.4 -0.5 4294967295
0.5 0.4 -0.5 4294967295
0.6 0.4 -0.5 4294967295
0.7 0.4 -0.5 4294967295
0.8 0.4 -0.5 4294967295
0.9 0.4 -0.5 4294967295
-0.9 0.4 0.5 4294967295
-0.8 0.4 0.5 4294967295
-0.7 0.4 0.5 4294967295
-0.6 0.4 0.5 4294967295
-0.5 0.4 0.5 4294967295
-0.4 0.4 0.5 4294967295
-0.3 0.4 0.5 4294967295
-0.2 0.4 0.5 4294967295
-0.1 0.4 0.5 4294967295
0.0 0.4 0.5 4294967295
0.1 0.4 0.5 4294967295
0.2 0.4 0.5 4294967295
0.3 0.4 0.5 4294967295
0.4 0.4 0.5 4294967295
0.5 0.4 0.5 4294967295
0.6 0.4 0.5 4294967295
0.7 0.4 0.5 4294967295
0.8 0.4 0.5 4294967295
0.9 0.4 0.5 4294967295 