# .PCD v0.7 - Point Cloud Data file format
VERSION 0.7
FIELDS x y z rgb
SIZE 4 4 4 4
TYPE F F F U
COUNT 1 1 1 1
WIDTH 1000
HEIGHT 1
VIEWPOINT 0 0 0 1 0 0 0
POINTS 1000
DATA ascii
0.0 0.0 1.0 4294967295
0.095 0.0 0.995 4294967295
0.191 0.0 0.982 4294967295
0.287 0.0 0.959 4294967295
0.383 0.0 0.924 4294967295
0.478 0.0 0.878 4294967295
0.574 0.0 0.819 4294967295
0.669 0.0 0.743 4294967295
0.765 0.0 0.644 4294967295
0.860 0.0 0.515 4294967295
0.956 0.0 0.293 4294967295
1.0 0.0 0.0 4294967295
0.956 0.0 -0.293 4294967295
0.860 0.0 -0.515 4294967295
0.765 0.0 -0.644 4294967295
0.669 0.0 -0.743 4294967295
0.574 0.0 -0.819 4294967295
0.478 0.0 -0.878 4294967295
0.383 0.0 -0.924 4294967295
0.287 0.0 -0.959 4294967295
0.191 0.0 -0.982 4294967295
0.095 0.0 -0.995 4294967295
0.0 0.0 -1.0 4294967295
-0.095 0.0 -0.995 4294967295
-0.191 0.0 -0.982 4294967295
-0.287 0.0 -0.959 4294967295
-0.383 0.0 -0.924 4294967295
-0.478 0.0 -0.878 4294967295
-0.574 0.0 -0.819 4294967295
-0.669 0.0 -0.743 4294967295
-0.765 0.0 -0.644 4294967295
-0.860 0.0 -0.515 4294967295
-0.956 0.0 -0.293 4294967295
-1.0 0.0 0.0 4294967295
-0.956 0.0 0.293 4294967295
-0.860 0.0 0.515 4294967295
-0.765 0.0 0.644 4294967295
-0.669 0.0 0.743 4294967295
-0.574 0.0 0.819 4294967295
-0.478 0.0 0.878 4294967295
-0.383 0.0 0.924 4294967295
-0.287 0.0 0.959 4294967295
-0.191 0.0 0.982 4294967295
-0.095 0.0 0.995 4294967295
0.0 0.095 0.995 4294967295
0.092 0.092 0.991 4294967295
0.185 0.092 0.978 4294967295
0.277 0.092 0.955 4294967295
0.370 0.092 0.920 4294967295
0.462 0.092 0.874 4294967295
0.555 0.092 0.815 4294967295
0.647 0.092 0.739 4294967295
0.740 0.092 0.640 4294967295
0.832 0.092 0.512 4294967295
0.925 0.092 0.292 4294967295
0.967 0.092 0.244 4294967295
0.925 0.092 -0.292 4294967295
0.832 0.092 -0.512 4294967295
0.740 0.092 -0.640 4294967295
0.647 0.092 -0.739 4294967295
0.555 0.092 -0.815 4294967295
0.462 0.092 -0.874 4294967295
0.370 0.092 -0.920 4294967295
0.277 0.092 -0.955 4294967295
0.185 0.092 -0.978 4294967295
0.092 0.092 -0.991 4294967295
0.0 0.095 -0.995 4294967295
-0.092 0.092 -0.991 4294967295
-0.185 0.092 -0.978 4294967295
-0.277 0.092 -0.955 4294967295
-0.370 0.092 -0.920 4294967295
-0.462 0.092 -0.874 4294967295
-0.555 0.092 -0.815 4294967295
-0.647 0.092 -0.739 4294967295
-0.740 0.092 -0.640 4294967295
-0.832 0.092 -0.512 4294967295
-0.925 0.092 -0.292 4294967295
-0.967 0.092 -0.244 4294967295
-0.925 0.092 0.292 4294967295
-0.832 0.092 0.512 4294967295
-0.740 0.092 0.640 4294967295
-0.647 0.092 0.739 4294967295
-0.555 0.092 0.815 4294967295
-0.462 0.092 0.874 4294967295
-0.370 0.092 0.920 4294967295
-0.277 0.092 0.955 4294967295
-0.185 0.092 0.978 4294967295
-0.092 0.092 0.991 4294967295
0.0 0.191 0.982 4294967295
0.184 0.184 0.966 4294967295
0.368 0.184 0.913 4294967295
0.552 0.184 0.801 4294967295
0.736 0.184 0.628 4294967295
0.920 0.184 0.342 4294967295
0.920 0.184 -0.342 4294967295
0.736 0.184 -0.628 4294967295
0.552 0.184 -0.801 4294967295
0.368 0.184 -0.913 4294967295
0.184 0.184 -0.966 4294967295
0.0 0.191 -0.982 4294967295
-0.184 0.184 -0.966 4294967295
-0.368 0.184 -0.913 4294967295
-0.552 0.184 -0.801 4294967295
-0.736 0.184 -0.628 4294967295
-0.920 0.184 -0.342 4294967295
-0.920 0.184 0.342 4294967295
-0.736 0.184 0.628 4294967295
-0.552 0.184 0.801 4294967295
-0.368 0.184 0.913 4294967295
-0.184 0.184 0.966 4294967295
0.0 0.287 0.959 4294967295
0.275 0.275 0.920 4294967295
0.550 0.275 0.782 4294967295
0.825 0.275 0.495 4294967295
0.825 0.275 -0.495 4294967295
0.550 0.275 -0.782 4294967295
0.275 0.275 -0.920 4294967295
0.0 0.287 -0.959 4294967295
-0.275 0.275 -0.920 4294967295
-0.550 0.275 -0.782 4294967295
-0.825 0.275 -0.495 4294967295
-0.825 0.275 0.495 4294967295
-0.550 0.275 0.782 4294967295
-0.275 0.275 0.920 4294967295
0.0 0.383 0.924 4294967295
0.366 0.366 0.868 4294967295
0.732 0.366 0.583 4294967295
0.732 0.366 -0.583 4294967295
0.366 0.366 -0.868 4294967295
0.0 0.383 -0.924 4294967295
-0.366 0.366 -0.868 4294967295
-0.732 0.366 -0.583 4294967295
-0.732 0.366 0.583 4294967295
-0.366 0.366 0.868 4294967295
0.0 0.478 0.878 4294967295
0.457 0.457 0.754 4294967295
0.457 0.457 -0.754 4294967295
0.0 0.478 -0.878 4294967295
-0.457 0.457 -0.754 4294967295
-0.457 0.457 0.754 4294967295
0.0 0.574 0.819 4294967295
0.548 0.548 0.639 4294967295
0.548 0.548 -0.639 4294967295
0.0 0.574 -0.819 4294967295
-0.548 0.548 -0.639 4294967295
-0.548 0.548 0.639 4294967295
0.0 0.669 0.743 4294967295
0.639 0.639 0.426 4294967295
0.639 0.639 -0.426 4294967295
0.0 0.669 -0.743 4294967295
-0.639 0.639 -0.426 4294967295
-0.639 0.639 0.426 4294967295
0.0 0.765 0.644 4294967295
0.730 0.730 0.251 4294967295
0.730 0.730 -0.251 4294967295
0.0 0.765 -0.644 4294967295
-0.730 0.730 -0.251 4294967295
-0.730 0.730 0.251 4294967295
0.0 0.860 0.515 4294967295
0.821 0.821 0.025 4294967295
0.821 0.821 -0.025 4294967295
0.0 0.860 -0.515 4294967295
-0.821 0.821 -0.025 4294967295
-0.821 0.821 0.025 4294967295
0.0 0.956 0.293 4294967295
0.0 0.956 -0.293 4294967295
0.0 1.0 0.0 4294967295 